# Blender v2.75 (sub 0) OBJ File: ''
# www.blender.org
o Cone
v -0.163843 -0.479435 -0.080379
v -0.151685 -0.497199 -0.008670
v -0.141630 -0.500638 0.065444
v -0.134066 -0.489620 0.139112
v -0.129283 -0.464567 0.209505
v -0.127464 -0.426442 0.273917
v -0.128681 -0.376712 0.329874
v -0.132885 -0.317286 0.375223
v -0.139916 -0.250448 0.408223
v 0.540912 0.001369 -0.041678
v -0.149503 -0.178768 0.427606
v -0.161278 -0.104999 0.432627
v -0.174788 -0.031977 0.423092
v -0.189515 0.037493 0.399368
v -0.204891 0.100740 0.362368
v -0.220327 0.155335 0.313512
v -0.235229 0.199178 0.254678
v -0.249024 0.230585 0.188127
v -0.261183 0.248350 0.116418
v -0.271238 0.251789 0.042304
v -0.278802 0.240770 -0.031364
v -0.283585 0.215717 -0.101757
v -0.285403 0.177593 -0.166170
v -0.284187 0.127862 -0.222126
v -0.279982 0.068436 -0.267475
v -0.272951 0.001598 -0.300475
v -0.263364 -0.070082 -0.319858
v -0.251589 -0.143851 -0.324879
v -0.238079 -0.216873 -0.315344
v -0.223353 -0.286343 -0.291620
v -0.207976 -0.349590 -0.254619
v -0.192540 -0.404184 -0.205763
v -0.177638 -0.448028 -0.146929
vn 0.486100 -0.637200 -0.598000
vn 0.550500 -0.783800 -0.287500
vn 0.450400 -0.521300 -0.724800
vn 0.414100 -0.382500 -0.825900
vn 0.378700 -0.226200 -0.897500
vn 0.345400 -0.058400 -0.936600
vn 0.315600 0.114500 -0.942000
vn 0.290500 0.285800 -0.913200
vn 0.270900 0.448900 -0.851500
vn 0.257700 0.597600 -0.759200
vn 0.251300 0.726200 -0.639900
vn 0.252000 0.829700 -0.498200
vn 0.259800 0.904100 -0.339400
vn 0.274300 0.946500 -0.169700
vn 0.295100 0.955500 0.004300
vn 0.321200 0.930500 0.176000
vn 0.351800 0.872600 0.338900
vn 0.385600 0.784000 0.486500
vn 0.421300 0.668000 0.613400
vn 0.457600 0.529200 0.714500
vn 0.493100 0.372900 0.786000
vn 0.526300 0.205100 0.825200
vn 0.556100 0.032200 0.830500
vn 0.581200 -0.139100 0.801800
vn 0.600800 -0.302200 0.740100
vn 0.614100 -0.450900 0.647800
vn 0.620400 -0.579500 0.528500
vn 0.619700 -0.682900 0.386700
vn 0.612000 -0.757300 0.228000
vn 0.597400 -0.799800 0.058300
vn 0.519900 -0.725900 -0.450300
vn 0.576700 -0.808700 -0.115800
vn -0.978400 -0.164700 0.125100
s off
f 32//1 10//1 33//1
f 1//2 10//2 2//2
f 31//3 10//3 32//3
f 30//4 10//4 31//4
f 29//5 10//5 30//5
f 28//6 10//6 29//6
f 27//7 10//7 28//7
f 26//8 10//8 27//8
f 25//9 10//9 26//9
f 24//10 10//10 25//10
f 23//11 10//11 24//11
f 22//12 10//12 23//12
f 21//13 10//13 22//13
f 20//14 10//14 21//14
f 19//15 10//15 20//15
f 18//16 10//16 19//16
f 17//17 10//17 18//17
f 16//18 10//18 17//18
f 15//19 10//19 16//19
f 14//20 10//20 15//20
f 13//21 10//21 14//21
f 12//22 10//22 13//22
f 11//23 10//23 12//23
f 9//24 10//24 11//24
f 8//25 10//25 9//25
f 7//26 10//26 8//26
f 6//27 10//27 7//27
f 5//28 10//28 6//28
f 4//29 10//29 5//29
f 3//30 10//30 4//30
f 33//31 10//31 1//31
f 2//32 10//32 3//32
f 1//33 9//33 18//33
f 32//33 33//33 1//33
f 1//33 31//33 32//33
f 28//33 29//33 30//33
f 30//33 27//33 28//33
f 24//33 25//33 26//33
f 22//33 23//33 24//33
f 20//33 21//33 22//33
f 18//33 19//33 20//33
f 16//33 17//33 18//33
f 14//33 15//33 16//33
f 12//33 13//33 14//33
f 9//33 11//33 12//33
f 5//33 8//33 9//33
f 5//33 6//33 7//33
f 3//33 4//33 5//33
f 5//33 2//33 3//33
f 30//33 31//33 1//33
f 26//33 27//33 30//33
f 18//33 24//33 26//33
f 18//33 20//33 22//33
f 14//33 16//33 18//33
f 18//33 12//33 14//33
f 5//33 7//33 8//33
f 1//33 2//33 5//33
f 18//33 30//33 1//33
f 18//33 22//33 24//33
f 9//33 12//33 18//33
f 1//33 5//33 9//33
f 18//33 26//33 30//33
